#!OML:ASF F:\VICON\USERDATA\INSTALL\rory3\rory3.ASF
:FULLY-SPECIFIED
:DEGREES
1654
root 3.88095 14.1047 -10.2097 -362.716 1.27213 357.092
lowerback 15.7273 1.97626 -2.68374
upperback -2.01741 2.46078 3.13281
thorax -11.3577 1.46423 4.34688
lowerneck -12.0226 -6.36488 -2.91812
upperneck 19.7106 -8.77509 2.60262
head 8.34908 -4.11228 0.396482
rclavicle -1.15745e-014 -2.34566e-014
rhumerus 18.6553 1.75103 -73.2609
rradius 80.0861
rwrist 28.8653
rhand -12.2421 28.7759
rfingers 7.12502
rthumb 13.8237 -0.744766
lclavicle -1.15745e-014 -2.34566e-014
lhumerus -21.2911 -39.8977 91.5257
lradius 38.7734
lwrist -12.7632
lhand -17.4315 15.0408
lfingers 7.12502
lthumb 8.81901 44.8365
rfemur 16.0398 1.0022 6.19891
rtibia 34.0009
rfoot -27.9815 -17.8492
rtoes -35.8159
lfemur -45.5404 5.29202 -15.1873
ltibia 76.3616
lfoot -22.7056 -3.71272
ltoes -1.16517
1655
root 3.93142 14.1087 -10.1663 -362.655 1.30539 357.074
lowerback 15.5086 1.98966 -2.80368
upperback -2.05677 2.4731 3.25481
thorax -11.2883 1.48311 4.5508
lowerneck -11.1052 -6.35777 -3.21946
upperneck 19.1324 -8.75357 2.84816
head 8.01556 -4.12181 0.567642
rclavicle 1.84264e-014 4.77083e-015
rhumerus 18.688 1.73428 -73.1122
rradius 79.9787
rwrist 28.8792
rhand -12.355 29.0245
rfingers 7.12502
rthumb 13.7149 -0.503529
lclavicle 1.84264e-014 4.77083e-015
lhumerus -21.8839 -39.6013 92.0251
lradius 39.069
lwrist -13.1798
lhand -18.5473 13.8342
lfingers 7.12502
lthumb 7.74215 43.6725
rfemur 15.9305 1.45307 6.24095
rtibia 34.2885
rfoot -27.5389 -18.0272
rtoes -35.981
lfemur -45.3719 5.17093 -15.4006
ltibia 76.3062
lfoot -22.9243 -3.58657
ltoes -1.10436
1656
root 3.98082 14.1306 -10.1379 -362.65 1.60094 357.125
lowerback 15.6489 1.9529 -2.85707
upperback -2.04021 2.40757 3.22348
thorax -11.3454 1.45478 4.56198
lowerneck -11.5594 -6.33078 -3.23285
upperneck 19.12 -8.73307 3.00121
head 8.10041 -4.0911 0.606583
rclavicle 1.40516e-014 -1.11319e-014
rhumerus 18.9198 1.77721 -72.7468
rradius 79.5547
rwrist 28.6806
rhand -12.2837 28.5744
rfingers 7.12502
rthumb 13.7836 -0.949028
lclavicle 1.40516e-014 -1.11319e-014
lhumerus -21.8705 -39.9398 92.0638
lradius 39.1861
lwrist -13.0917
lhand -17.3364 14.4948
lfingers 7.12502
lthumb 8.91077 44.2867
rfemur 15.734 1.6254 6.1863
rtibia 34.7413
rfoot -26.2683 -19.0334
rtoes -38.6599
lfemur -45.1367 4.8403 -15.7313
ltibia 76.0555
lfoot -22.9681 -3.54394
ltoes -0.57996
1657
root 4.0354 14.1354 -10.0977 -362.617 1.43616 357.037
lowerback 15.636 1.9981 -2.82409
upperback -2.16268 2.48208 3.26648
thorax -11.4853 1.49488 4.57251
lowerneck -10.7651 -6.26782 -3.11893
upperneck 18.6255 -8.66903 3.01933
head 7.78695 -4.07065 0.635482
rclavicle -3.38866e-015 -1.39149e-014
rhumerus 18.856 1.82143 -72.8033
rradius 79.1737
rwrist 28.5842
rhand -12.4481 28.9309
rfingers 7.12502
rthumb 13.6252 -0.603198
lclavicle -3.38866e-015 -1.39149e-014
lhumerus -22.6518 -40.0163 92.5392
lradius 39.4157
lwrist -13.4195
lhand -17.994 14.8145
lfingers 7.12502
lthumb 8.27609 44.6324
rfemur 15.4959 2.1911 6.19778
rtibia 35.0664
rfoot -24.8503 -19.6813
rtoes -41.4028
lfemur -44.9357 4.7365 -15.8693
ltibia 76.1178
lfoot -23.2283 -3.14632
ltoes -0.227965
1658
root 4.09438 14.1457 -10.061 -362.513 1.59213 357.181
lowerback 15.5197 1.98476 -2.83023
upperback -2.19336 2.4546 3.17204
thorax -11.4438 1.47803 4.47953
lowerneck -11.7257 -6.45487 -2.87699
upperneck 19.7021 -8.90286 2.54661
head 8.29159 -4.17975 0.367709
rclavicle -2.42269e-014 -1.35174e-014
rhumerus 19.069 1.65677 -72.6883
rradius 79.1794
rwrist 28.1084
rhand -11.6023 28.7154
rfingers 7.12502
rthumb 14.4402 -0.76218
lclavicle -2.42269e-014 -1.35174e-014
lhumerus -22.8638 -40.2572 92.743
lradius 39.6779
lwrist -13.0301
lhand -17.0867 14.9138
lfingers 7.12502
lthumb 9.15167 44.6952
rfemur 15.4146 2.10787 5.6559
rtibia 35.2047
rfoot -24.027 -19.131
rtoes -40.9512
lfemur -44.7711 4.3202 -16.3469
ltibia 76.0462
lfoot -23.3402 -3.2302
ltoes 1.58187
1659
root 4.1464 14.1475 -10.0329 -362.506 1.66192 357.016
lowerback 15.6003 1.94281 -2.77224
upperback -2.24106 2.42176 3.279
thorax -11.5447 1.46619 4.57327
lowerneck -10.4812 -6.34413 -3.28245
upperneck 18.8768 -8.7912 3.15753
head 7.83778 -4.12794 0.699339
rclavicle 3.03426e-014 3.57812e-014
rhumerus 19.0826 1.90434 -72.412
rradius 78.642
rwrist 28.0637
rhand -12.005 28.6786
rfingers 7.12502
rthumb 14.0521 -0.826347
lclavicle 3.03426e-014 3.57812e-014
lhumerus -23.1962 -40.4672 93.061
lradius 39.8649
lwrist -12.1958
lhand -18.0045 15.5161
lfingers 7.12502
lthumb 8.26597 45.3343
rfemur 15.3308 2.3262 5.73375
rtibia 35.4268
rfoot -23.1824 -19.1783
rtoes -40.2963
lfemur -44.6738 4.12613 -16.3898
ltibia 76.0748
lfoot -23.5712 -3.00626
ltoes 1.71983
1660
root 4.19876 14.1632 -9.99645 -362.556 1.69118 356.876
lowerback 15.6369 1.9422 -2.71212
upperback -2.17749 2.44013 3.35926
thorax -11.4977 1.47231 4.62248
lowerneck -11.4257 -6.34092 -3.10138
upperneck 19.3245 -8.76424 2.89655
head 8.13442 -4.10588 0.549632
rclavicle 9.92681e-015 1.74931e-014
rhumerus 19.4539 1.7537 -72.4449
rradius 78.365
rwrist 28.5274
rhand -12.1168 28.9579
rfingers 7.12502
rthumb 13.9445 -0.554451
lclavicle 9.92681e-015 1.74931e-014
lhumerus -23.6029 -40.3259 93.3406
lradius 40.1615
lwrist -13.264
lhand -17.9859 15.709
lfingers 7.12502
lthumb 8.28396 45.5266
rfemur 15.4183 2.76638 5.88427
rtibia 35.5135
rfoot -21.9123 -19.6021
rtoes -41.3235
lfemur -44.3797 3.90993 -16.4825
ltibia 75.9992
lfoot -23.7822 -2.75744
ltoes 1.54702
1661
root 4.25542 14.1688 -9.96065 -362.571 1.67968 356.999
lowerback 15.7894 1.97782 -2.94525
upperback -2.22673 2.445 3.39563
thorax -11.6573 1.49593 4.79498
lowerneck -11.4916 -6.30105 -3.0856
upperneck 19.4801 -8.70827 2.85187
head 8.19366 -4.07933 0.534176
rclavicle 6.93572e-015 1.03368e-014
rhumerus 19.4344 2.14713 -71.8486
rradius 78.0397
rwrist 27.9216
rhand -12.0158 28.5606
rfingers 7.12502
rthumb 14.0418 -0.94504
lclavicle 6.93572e-015 1.03368e-014
lhumerus -23.7988 -40.6621 93.7596
lradius 40.0276
lwrist -13.0762
lhand -18.0867 15.0944
lfingers 7.12502
lthumb 8.18667 44.9158
rfemur 15.3447 3.19935 5.66047
rtibia 35.7014
rfoot -21.6933 -19.357
rtoes -39.5218
lfemur -44.1059 3.71573 -16.8927
ltibia 75.9543
lfoot -24.0141 -2.56648
ltoes 2.34625
1662
root 4.31356 14.1772 -9.92072 -362.333 1.64462 356.676
lowerback 15.3324 1.97779 -2.64146
upperback -2.16072 2.51864 3.48011
thorax -11.3122 1.50684 4.69896
lowerneck -11.5564 -6.41913 -3.25833
upperneck 19.2449 -8.8776 3.10026
head 8.15263 -4.1497 0.625163
rclavicle 2.07311e-014 7.15625e-015
rhumerus 19.7135 2.06656 -71.6273
rradius 77.6678
rwrist 27.9917
rhand -12.5114 28.7184
rfingers 7.12502
rthumb 13.5642 -0.819753
lclavicle 2.07311e-014 7.15625e-015
lhumerus -23.9467 -40.8971 93.8305
lradius 40.51
lwrist -13.058
lhand -17.5272 15.9978
lfingers 7.12502
lthumb 8.72661 45.7974
rfemur 14.9373 3.61444 5.92833
rtibia 35.9565
rfoot -21.3328 -19.0358
rtoes -38.2664
lfemur -44.2278 3.61158 -16.7986
ltibia 76.0578
lfoot -24.2918 -2.61089
ltoes 3.26719
1663
root 4.36831 14.1669 -9.90069 -362.443 1.85767 356.976
lowerback 15.457 1.95442 -2.94424
upperback -2.19546 2.42068 3.41592
thorax -11.4251 1.48039 4.82597
lowerneck -11.07 -6.46597 -3.30492
upperneck 19.4 -8.93505 3.01386
head 8.11679 -4.19428 0.612587
rclavicle 1.33621e-014 3.81667e-014
rhumerus 19.6758 2.12998 -71.4957
rradius 77.3972
rwrist 27.7931
rhand -12.1206 28.6955
rfingers 7.12502
rthumb 13.9408 -0.817098
lclavicle 1.33621e-014 3.81667e-014
lhumerus -24.1374 -41.0372 94.1837
lradius 40.3617
lwrist -12.6244
lhand -17.1648 15.2598
lfingers 7.12502
lthumb 9.07631 45.0445
rfemur 14.8068 4.06579 5.52864
rtibia 36.5708
rfoot -20.3148 -19.2343
rtoes -39.7363
lfemur -43.8877 2.98096 -17.397
ltibia 76.0247
lfoot -24.4689 -2.59007
ltoes 5.40428
1664
root 4.43211 14.1734 -9.86164 -362.395 1.80865 356.909
lowerback 15.3829 1.93274 -2.75547
upperback -2.20609 2.42427 3.37046
thorax -11.3821 1.46692 4.66656
lowerneck -11.2341 -6.60895 -3.10606
upperneck 19.2401 -9.10102 2.73136
head 8.07469 -4.28604 0.467388
rclavicle 3.6154e-015 -8.34896e-015
rhumerus 19.9562 2.12975 -71.4608
rradius 77.093
rwrist 27.2402
rhand -11.5911 28.5974
rfingers 7.12502
rthumb 14.451 -0.879471
lclavicle 3.6154e-015 -8.34896e-015
lhumerus -24.4745 -41.1815 94.3528
lradius 40.5652
lwrist -12.6814
lhand -17.7282 15.1255
lfingers 7.12502
lthumb 8.53266 44.9331
rfemur 14.581 4.52573 5.47749
rtibia 36.9465
rfoot -19.2233 -19.2952
rtoes -40.5697
lfemur -43.7048 2.67574 -17.6265
ltibia 76.0145
lfoot -24.7194 -2.21112
ltoes 5.88231
1665
root 4.48568 14.1921 -9.8335 -362.263 1.5036 356.716
lowerback 15.2543 2.03444 -2.85456
upperback -2.14762 2.56467 3.57158
thorax -11.2731 1.54589 4.91233
lowerneck -11.4298 -6.4864 -3.2032
upperneck 19.0507 -8.93109 2.88837
head 8.05371 -4.19657 0.548675
rclavicle 5.29575e-015 -3.02153e-014
rhumerus 20.3547 2.1307 -71.2855
rradius 76.7818
rwrist 27.8638
rhand -12.1699 28.6531
rfingers 7.12502
rthumb 13.8932 -0.862771
lclavicle 5.29575e-015 -3.02153e-014
lhumerus -24.2976 -41.0723 94.4294
lradius 40.5947
lwrist -12.9285
lhand -18.5571 15.2329
lfingers 7.12502
lthumb 7.73266 45.0715
rfemur 14.0408 5.23617 5.68258
rtibia 37.3792
rfoot -18.091 -19.667
rtoes -39.2413
lfemur -43.6158 2.76514 -17.6559
ltibia 75.9038
lfoot -24.8727 -1.65731
ltoes 4.85612
1666
root 4.54414 14.1914 -9.79981 -362.397 1.83817 356.819
lowerback 15.4028 1.96667 -2.91059
upperback -2.23575 2.45644 3.51341
thorax -11.4468 1.50088 4.90692
lowerneck -10.8068 -6.53494 -3.26042
upperneck 19.2322 -9.01451 2.90092
head 8.00843 -4.24628 0.571895
rclavicle 5.8393e-016 -1.63003e-014
rhumerus 20.3033 2.14279 -71.1359
rradius 76.3714
rwrist 27.6145
rhand -12.2897 28.6852
rfingers 7.12502
rthumb 13.7778 -0.838604
lclavicle 5.8393e-016 -1.63003e-014
lhumerus -24.8677 -41.3141 94.8672
lradius 40.9107
lwrist -12.4602
lhand -17.8746 15.0203
lfingers 7.12502
lthumb 8.39131 44.8336
rfemur 14.1139 5.34002 5.42809
rtibia 37.697
rfoot -18.4631 -18.788
rtoes -38.062
lfemur -43.1868 2.1061 -18.0573
ltibia 75.8644
lfoot -25.0308 -2.01706
ltoes 8.32618
1667
root 4.60479 14.1943 -9.76317 -362.282 1.7797 356.737
lowerback 15.0952 1.96252 -2.7865
upperback -2.10493 2.47514 3.50676
thorax -11.1143 1.49229 4.82492
lowerneck -10.9631 -6.59506 -3.13078
upperneck 18.8873 -9.1006 2.89366
head 7.91789 -4.28108 0.539571
rclavicle 2.08646e-015 -2.78299e-014
rhumerus 20.7146 2.11251 -71.0156
rradius 76.1554
rwrist 27.2892
rhand -12.3486 28.5337
rfingers 7.12502
rthumb 13.721 -0.993965
lclavicle 2.08646e-015 -2.78299e-014
lhumerus -24.424 -41.5672 94.6926
lradius 40.7436
lwrist -12.188
lhand -16.3653 15.5722
lfingers 7.12502
lthumb 9.84773 45.3219
rfemur 13.9737 5.58765 5.2919
rtibia 37.8331
rfoot -17.9054 -18.5219
rtoes -37.5643
lfemur -43.1239 1.93361 -18.2801
ltibia 75.865
lfoot -25.3961 -1.43358
ltoes 6.59785
